<svg xmlns="http://www.w3.org/2000/svg" viewBox="0 0 205.92 198.66"><defs><style>.cls-1{fill:#5a6b74;}.cls-2{fill:#576975;}.cls-3{fill:#556876;}.cls-4{fill:#526677;}.cls-5{fill:#506477;}.cls-6{fill:#4d6378;}.cls-7{fill:#4b6179;}.cls-8{fill:#485f7a;}.cls-9{fill:#465e7b;}.cls-10{fill:#435c7c;}.cls-11{fill:#415b7d;}.cls-12{fill:#3e597e;}.cls-13{fill:#3c577e;}.cls-14{fill:#39567f;}.cls-15{fill:#375480;}.cls-16{fill:#345281;}.cls-17{fill:#325182;}.cls-18{fill:#2f4f83;}.cls-19{fill:#2d4d84;}.cls-20{fill:#2a4c85;}.cls-21{fill:#284a85;}.cls-22{fill:#254886;}.cls-23{fill:#234787;}.cls-24{fill:#204588;}.cls-25{fill:#1e4489;}.cls-26{fill:#1b428a;}.cls-27{fill:#19408b;}.cls-28{fill:#163f8c;}.cls-29{fill:#143d8c;}.cls-30{fill:#113b8d;}.cls-31{fill:#0f3a8e;}.cls-32{fill:#0c388f;}.cls-33,.cls-40,.cls-47,.cls-58,.cls-61{font-size:8.4px;}.cls-33,.cls-40,.cls-47,.cls-58,.cls-61,.cls-72,.cls-82,.cls-87{fill:#fff;font-family:NotoSansCJKjp-Medium-90ms-RKSJ-H, Noto Sans CJK JP;}.cls-33{letter-spacing:0.05em;}.cls-34{letter-spacing:0.03em;}.cls-35{letter-spacing:-0.06em;}.cls-36{letter-spacing:-0.11em;}.cls-37{letter-spacing:-0.05em;}.cls-38{letter-spacing:0.01em;}.cls-39{letter-spacing:-0.04em;}.cls-40{letter-spacing:-0.03em;}.cls-41{letter-spacing:-0.2em;}.cls-42{letter-spacing:-0.06em;}.cls-43{letter-spacing:-0.11em;}.cls-44{letter-spacing:-0.05em;}.cls-45{letter-spacing:-0.04em;}.cls-46{letter-spacing:0.03em;}.cls-47{letter-spacing:-0.04em;}.cls-48{letter-spacing:-0.01em;}.cls-49{letter-spacing:-0.09em;}.cls-50{letter-spacing:-0.16em;}.cls-51{letter-spacing:0.06em;}.cls-52{letter-spacing:0.04em;}.cls-53{letter-spacing:0.06em;}.cls-54{letter-spacing:0.03em;}.cls-55{letter-spacing:-0.07em;}.cls-56{letter-spacing:-0.05em;}.cls-57{letter-spacing:-0.08em;}.cls-58{letter-spacing:0.03em;}.cls-59{letter-spacing:0.06em;}.cls-60{letter-spacing:0.05em;}.cls-62{letter-spacing:0.03em;}.cls-63{letter-spacing:0.01em;}.cls-64{letter-spacing:0.03em;}.cls-65{letter-spacing:-0.09em;}.cls-66{letter-spacing:-0.14em;}.cls-67{letter-spacing:-0.08em;}.cls-68{letter-spacing:-0.02em;}.cls-69{letter-spacing:-0.07em;}.cls-70{fill:none;stroke:#00c8e0;stroke-miterlimit:10;stroke-width:0.99px;}.cls-71{fill:#060930;}.cls-72,.cls-82,.cls-87{font-size:6px;}.cls-72{letter-spacing:-0.08em;}.cls-73{letter-spacing:-0.1em;}.cls-74{letter-spacing:-0.12em;}.cls-75{letter-spacing:-0.1em;}.cls-76{letter-spacing:-0.09em;}.cls-77{letter-spacing:-0.13em;}.cls-78{letter-spacing:-0.16em;}.cls-79{letter-spacing:-0.08em;}.cls-80{letter-spacing:-0.2em;}.cls-81{letter-spacing:-0.08em;}.cls-82{letter-spacing:-0.16em;}.cls-83{letter-spacing:-0.12em;}.cls-84{letter-spacing:-0.03em;}.cls-85{letter-spacing:-0.1em;}.cls-86{letter-spacing:-0.09em;}.cls-87{letter-spacing:-0.12em;}.cls-88{letter-spacing:-0.04em;}.cls-89{letter-spacing:-0.1em;}.cls-90{letter-spacing:-0.03em;}.cls-91{fill:#00c8e0;}</style></defs><g id="Layer_2" data-name="Layer 2"><g id="Design"><path class="cls-1" d="M94.23,83.33a17.06,17.06,0,1,1,4.61-23.68A17.06,17.06,0,0,1,94.23,83.33Z"/><path class="cls-1" d="M136.15,78.31a17.05,17.05,0,1,1-4.22-23.75A17.05,17.05,0,0,1,136.15,78.31Z"/><path class="cls-1" d="M127.39,119.48A17.06,17.06,0,1,1,148.6,108,17.07,17.07,0,0,1,127.39,119.48Z"/><path class="cls-1" d="M78.56,119.74A17.06,17.06,0,1,1,90,98.47,17.06,17.06,0,0,1,78.56,119.74Z"/><path class="cls-1" d="M102.89,140.53A17.06,17.06,0,1,1,120,123.47,17.05,17.05,0,0,1,102.89,140.53Z"/><path class="cls-2" d="M93.94,82.91a17.74,17.74,0,1,1,4.81-24.63A17.74,17.74,0,0,1,93.94,82.91Z"/><path class="cls-2" d="M137.4,77.73A17.74,17.74,0,1,1,133,53,17.75,17.75,0,0,1,137.4,77.73Z"/><path class="cls-2" d="M128.34,120.47a17.74,17.74,0,1,1,22.06-12A17.74,17.74,0,0,1,128.34,120.47Z"/><path class="cls-2" d="M77.62,120.74A17.74,17.74,0,1,1,89.46,98.62,17.75,17.75,0,0,1,77.62,120.74Z"/><path class="cls-2" d="M102.89,142.4a17.74,17.74,0,1,1,17.74-17.74A17.74,17.74,0,0,1,102.89,142.4Z"/><path class="cls-3" d="M93.66,82.49a18.42,18.42,0,1,1,5-25.58A18.44,18.44,0,0,1,93.66,82.49Z"/><path class="cls-3" d="M138.64,77.14a18.43,18.43,0,1,1-4.57-25.65A18.43,18.43,0,0,1,138.64,77.14Z"/><path class="cls-3" d="M129.28,121.47a18.43,18.43,0,1,1,22.92-12.42A18.43,18.43,0,0,1,129.28,121.47Z"/><path class="cls-3" d="M76.67,121.74A18.43,18.43,0,1,1,89,98.77,18.44,18.44,0,0,1,76.67,121.74Z"/><path class="cls-3" d="M102.89,144.28a18.43,18.43,0,1,1,18.43-18.43A18.43,18.43,0,0,1,102.89,144.28Z"/><path class="cls-4" d="M93.38,82.07a19.11,19.11,0,1,1,5.17-26.53A19.12,19.12,0,0,1,93.38,82.07Z"/><path class="cls-4" d="M139.88,76.55A19.11,19.11,0,1,1,135.15,50,19.1,19.1,0,0,1,139.88,76.55Z"/><path class="cls-4" d="M130.23,122.46A19.11,19.11,0,1,1,154,109.59,19.11,19.11,0,0,1,130.23,122.46Z"/><path class="cls-4" d="M75.73,122.74A19.11,19.11,0,1,1,88.49,98.91,19.11,19.11,0,0,1,75.73,122.74Z"/><path class="cls-4" d="M102.89,146.15A19.11,19.11,0,1,1,122,127,19.11,19.11,0,0,1,102.89,146.15Z"/><path class="cls-5" d="M93.09,81.65a19.79,19.79,0,1,1,5.36-27.48A19.78,19.78,0,0,1,93.09,81.65Z"/><path class="cls-5" d="M141.13,76a19.79,19.79,0,1,1-4.91-27.56A19.8,19.8,0,0,1,141.13,76Z"/><path class="cls-5" d="M131.18,123.46a19.8,19.8,0,1,1,24.61-13.34A19.8,19.8,0,0,1,131.18,123.46Z"/><circle class="cls-5" cx="69.06" cy="104.79" r="19.79" transform="translate(-51.83 138.49) rotate(-72.19)"/><path class="cls-5" d="M102.89,148a19.8,19.8,0,1,1,19.8-19.8A19.79,19.79,0,0,1,102.89,148Z"/><path class="cls-6" d="M92.81,81.23A20.48,20.48,0,1,1,98.35,52.8,20.47,20.47,0,0,1,92.81,81.23Z"/><path class="cls-6" d="M142.37,75.38a20.48,20.48,0,1,1-5.08-28.51A20.47,20.47,0,0,1,142.37,75.38Z"/><path class="cls-6" d="M132.13,124.45a20.48,20.48,0,1,1,25.46-13.79A20.48,20.48,0,0,1,132.13,124.45Z"/><circle class="cls-6" cx="67.92" cy="105.14" r="20.48" transform="translate(-49.21 149.27) rotate(-77.78)"/><path class="cls-6" d="M102.89,149.9a20.48,20.48,0,1,1,20.48-20.47A20.47,20.47,0,0,1,102.89,149.9Z"/><path class="cls-7" d="M92.53,80.81a21.17,21.17,0,1,1,5.72-29.38A21.17,21.17,0,0,1,92.53,80.81Z"/><path class="cls-7" d="M143.61,74.8a21.16,21.16,0,1,1-5.24-29.47A21.16,21.16,0,0,1,143.61,74.8Z"/><path class="cls-7" d="M133.07,125.45a21.16,21.16,0,1,1,26.32-14.26A21.17,21.17,0,0,1,133.07,125.45Z"/><circle class="cls-7" cx="66.78" cy="105.48" r="21.16" transform="translate(-47.48 155.78) rotate(-81.42)"/><path class="cls-7" d="M102.89,151.78a21.17,21.17,0,1,1,21.16-21.16A21.17,21.17,0,0,1,102.89,151.78Z"/><path class="cls-8" d="M92.24,80.39a21.85,21.85,0,1,1,5.92-30.33A21.84,21.84,0,0,1,92.24,80.39Z"/><path class="cls-8" d="M144.85,74.21a21.84,21.84,0,1,1-5.41-30.41A21.84,21.84,0,0,1,144.85,74.21Z"/><path class="cls-8" d="M134,126.44a21.85,21.85,0,1,1,27.16-14.71A21.84,21.84,0,0,1,134,126.44Z"/><circle class="cls-8" cx="65.64" cy="105.82" r="21.85" transform="translate(-46.56 159.86) rotate(-83.9)"/><path class="cls-8" d="M102.89,153.65a21.85,21.85,0,1,1,21.85-21.84A21.84,21.84,0,0,1,102.89,153.65Z"/><path class="cls-9" d="M92,80a22.53,22.53,0,1,1,6.1-31.27A22.52,22.52,0,0,1,92,80Z"/><path class="cls-9" d="M146.1,73.63a22.53,22.53,0,1,1-5.59-31.37A22.54,22.54,0,0,1,146.1,73.63Z"/><path class="cls-9" d="M135,127.44a22.53,22.53,0,1,1,28-15.18A22.54,22.54,0,0,1,135,127.44Z"/><path class="cls-9" d="M71,127.73a22.53,22.53,0,1,1,15-28.08A22.52,22.52,0,0,1,71,127.73Z"/><path class="cls-9" d="M102.89,155.53A22.53,22.53,0,1,1,125.42,133,22.53,22.53,0,0,1,102.89,155.53Z"/><path class="cls-10" d="M91.68,79.54A23.21,23.21,0,1,1,98,47.32,23.22,23.22,0,0,1,91.68,79.54Z"/><path class="cls-10" d="M147.34,73a23.21,23.21,0,1,1-5.75-32.32A23.21,23.21,0,0,1,147.34,73Z"/><path class="cls-10" d="M135.92,128.43a23.21,23.21,0,1,1,28.86-15.64A23.21,23.21,0,0,1,135.92,128.43Z"/><path class="cls-10" d="M70.08,128.73A23.21,23.21,0,1,1,85.58,99.8,23.22,23.22,0,0,1,70.08,128.73Z"/><path class="cls-10" d="M102.89,157.4a23.21,23.21,0,1,1,23.22-23.21A23.21,23.21,0,0,1,102.89,157.4Z"/><path class="cls-11" d="M91.39,79.12A23.9,23.9,0,1,1,97.86,46,23.89,23.89,0,0,1,91.39,79.12Z"/><path class="cls-11" d="M148.58,72.45a23.89,23.89,0,1,1-5.92-33.27A23.89,23.89,0,0,1,148.58,72.45Z"/><path class="cls-11" d="M136.86,129.43a23.9,23.9,0,1,1,29.72-16.1A23.9,23.9,0,0,1,136.86,129.43Z"/><path class="cls-11" d="M69.13,129.73a23.89,23.89,0,1,1,16-29.79A23.9,23.9,0,0,1,69.13,129.73Z"/><path class="cls-11" d="M102.89,159.28a23.9,23.9,0,1,1,23.9-23.9A23.9,23.9,0,0,1,102.89,159.28Z"/><path class="cls-12" d="M91.11,78.7a24.58,24.58,0,1,1,6.65-34.12A24.57,24.57,0,0,1,91.11,78.7Z"/><path class="cls-12" d="M149.82,71.87a24.58,24.58,0,1,1-6.09-34.23A24.58,24.58,0,0,1,149.82,71.87Z"/><path class="cls-12" d="M137.81,130.42a24.58,24.58,0,1,1,30.57-16.56A24.58,24.58,0,0,1,137.81,130.42Z"/><path class="cls-12" d="M68.19,130.73a24.58,24.58,0,1,1,16.42-30.64A24.58,24.58,0,0,1,68.19,130.73Z"/><path class="cls-12" d="M102.89,161.15a24.58,24.58,0,1,1,24.58-24.58A24.58,24.58,0,0,1,102.89,161.15Z"/><path class="cls-13" d="M90.82,78.28a25.26,25.26,0,1,1,6.84-35.07A25.25,25.25,0,0,1,90.82,78.28Z"/><path class="cls-13" d="M151.07,71.28a25.26,25.26,0,1,1-6.26-35.17A25.26,25.26,0,0,1,151.07,71.28Z"/><path class="cls-13" d="M138.76,131.42a25.27,25.27,0,1,1,31.41-17A25.27,25.27,0,0,1,138.76,131.42Z"/><path class="cls-13" d="M67.25,131.73a25.26,25.26,0,1,1,16.87-31.49A25.26,25.26,0,0,1,67.25,131.73Z"/><path class="cls-13" d="M102.89,163a25.27,25.27,0,1,1,25.27-25.26A25.26,25.26,0,0,1,102.89,163Z"/><path class="cls-14" d="M90.54,77.86a25.95,25.95,0,1,1,7-36A25.95,25.95,0,0,1,90.54,77.86Z"/><path class="cls-14" d="M152.31,70.7a25.95,25.95,0,1,1-6.43-36.13A26,26,0,0,1,152.31,70.7Z"/><path class="cls-14" d="M139.7,132.41A25.95,25.95,0,1,1,172,114.93,26,26,0,0,1,139.7,132.41Z"/><path class="cls-14" d="M66.31,132.73a25.95,25.95,0,1,1,17.32-32.35A25.95,25.95,0,0,1,66.31,132.73Z"/><path class="cls-14" d="M102.89,164.91a25.95,25.95,0,1,1,26-25.95A26,26,0,0,1,102.89,164.91Z"/><path class="cls-15" d="M90.26,77.44a26.63,26.63,0,1,1,7.21-37A26.63,26.63,0,0,1,90.26,77.44Z"/><path class="cls-15" d="M153.55,70.11A26.63,26.63,0,1,1,147,33,26.63,26.63,0,0,1,153.55,70.11Z"/><path class="cls-15" d="M140.65,133.41a26.63,26.63,0,1,1,33.12-17.94A26.64,26.64,0,0,1,140.65,133.41Z"/><path class="cls-15" d="M65.36,133.73a26.63,26.63,0,1,1,17.79-33.2A26.63,26.63,0,0,1,65.36,133.73Z"/><path class="cls-15" d="M102.89,166.78a26.63,26.63,0,1,1,26.63-26.63A26.63,26.63,0,0,1,102.89,166.78Z"/><path class="cls-16" d="M90,77a27.32,27.32,0,1,1,7.4-37.92A27.31,27.31,0,0,1,90,77Z"/><path class="cls-16" d="M154.79,69.53a27.32,27.32,0,1,1-6.77-38A27.32,27.32,0,0,1,154.79,69.53Z"/><path class="cls-16" d="M141.6,134.4a27.32,27.32,0,1,1,34-18.4A27.32,27.32,0,0,1,141.6,134.4Z"/><path class="cls-16" d="M64.42,134.73a27.31,27.31,0,1,1,18.24-34A27.31,27.31,0,0,1,64.42,134.73Z"/><path class="cls-16" d="M102.89,168.66a27.32,27.32,0,1,1,27.32-27.32A27.32,27.32,0,0,1,102.89,168.66Z"/><path class="cls-17" d="M89.69,76.6a28,28,0,1,1,7.58-38.87A28,28,0,0,1,89.69,76.6Z"/><path class="cls-17" d="M156,68.94a28,28,0,1,1-6.94-39A28,28,0,0,1,156,68.94Z"/><path class="cls-17" d="M142.55,135.4a28,28,0,1,1,34.81-18.86A28,28,0,0,1,142.55,135.4Z"/><path class="cls-17" d="M63.48,135.73a28,28,0,1,1,18.7-34.91A28,28,0,0,1,63.48,135.73Z"/><path class="cls-17" d="M102.89,170.53a28,28,0,1,1,28-28A28,28,0,0,1,102.89,170.53Z"/><path class="cls-18" d="M89.41,76.18a28.69,28.69,0,1,1,7.76-39.82A28.69,28.69,0,0,1,89.41,76.18Z"/><path class="cls-18" d="M157.28,68.35a28.68,28.68,0,1,1-7.11-39.93A28.68,28.68,0,0,1,157.28,68.35Z"/><path class="cls-18" d="M143.49,136.39a28.68,28.68,0,1,1,35.67-19.32A28.69,28.69,0,0,1,143.49,136.39Z"/><path class="cls-18" d="M62.54,136.73A28.68,28.68,0,1,1,81.69,101,28.68,28.68,0,0,1,62.54,136.73Z"/><path class="cls-18" d="M102.89,172.41a28.69,28.69,0,1,1,28.69-28.69A28.69,28.69,0,0,1,102.89,172.41Z"/><path class="cls-19" d="M89.12,75.75A29.36,29.36,0,1,1,97.07,35,29.35,29.35,0,0,1,89.12,75.75Z"/><path class="cls-19" d="M158.52,67.77a29.37,29.37,0,1,1-7.28-40.89A29.37,29.37,0,0,1,158.52,67.77Z"/><path class="cls-19" d="M144.44,137.39A29.37,29.37,0,1,1,181,117.6,29.37,29.37,0,0,1,144.44,137.39Z"/><path class="cls-19" d="M61.59,137.73A29.37,29.37,0,1,1,81.2,101.12,29.38,29.38,0,0,1,61.59,137.73Z"/><path class="cls-19" d="M102.89,174.28a29.37,29.37,0,1,1,29.37-29.37A29.37,29.37,0,0,1,102.89,174.28Z"/><path class="cls-20" d="M88.84,75.33A30.05,30.05,0,1,1,97,33.62,30,30,0,0,1,88.84,75.33Z"/><path class="cls-20" d="M159.76,67.18a30,30,0,1,1-7.44-41.84A30,30,0,0,1,159.76,67.18Z"/><path class="cls-20" d="M145.39,138.38a30,30,0,1,1,37.37-20.24A30.06,30.06,0,0,1,145.39,138.38Z"/><path class="cls-20" d="M60.65,138.73a30.05,30.05,0,1,1,20.07-37.46A30,30,0,0,1,60.65,138.73Z"/><path class="cls-20" d="M102.89,176.16a30.06,30.06,0,1,1,30.05-30A30.06,30.06,0,0,1,102.89,176.16Z"/><path class="cls-21" d="M88.56,74.91a30.74,30.74,0,1,1,8.32-42.66A30.74,30.74,0,0,1,88.56,74.91Z"/><path class="cls-21" d="M161,66.6a30.74,30.74,0,1,1-7.62-42.8A30.74,30.74,0,0,1,161,66.6Z"/><path class="cls-21" d="M146.33,139.38a30.74,30.74,0,1,1,38.22-20.71A30.73,30.73,0,0,1,146.33,139.38Z"/><path class="cls-21" d="M59.71,139.73a30.74,30.74,0,1,1,20.52-38.32A30.75,30.75,0,0,1,59.71,139.73Z"/><path class="cls-21" d="M102.89,178a30.74,30.74,0,1,1,30.74-30.73A30.73,30.73,0,0,1,102.89,178Z"/><path class="cls-22" d="M88.27,74.49a31.42,31.42,0,1,1,8.51-43.61A31.41,31.41,0,0,1,88.27,74.49Z"/><path class="cls-22" d="M162.25,66a31.42,31.42,0,1,1-7.79-43.74A31.43,31.43,0,0,1,162.25,66Z"/><path class="cls-22" d="M147.28,140.37a31.42,31.42,0,1,1,39.07-21.16A31.41,31.41,0,0,1,147.28,140.37Z"/><path class="cls-22" d="M58.77,140.73a31.42,31.42,0,1,1,21-39.17A31.42,31.42,0,0,1,58.77,140.73Z"/><path class="cls-22" d="M102.89,179.91a31.42,31.42,0,1,1,31.42-31.42A31.42,31.42,0,0,1,102.89,179.91Z"/><path class="cls-23" d="M88,74.07a32.1,32.1,0,1,1,8.69-44.56A32.1,32.1,0,0,1,88,74.07Z"/><path class="cls-23" d="M163.49,65.43a32.1,32.1,0,1,1-8-44.7A32.1,32.1,0,0,1,163.49,65.43Z"/><path class="cls-23" d="M148.23,141.37a32.11,32.11,0,1,1,39.92-21.63A32.11,32.11,0,0,1,148.23,141.37Z"/><path class="cls-23" d="M57.82,141.73a32.1,32.1,0,1,1,21.44-40A32.11,32.11,0,0,1,57.82,141.73Z"/><path class="cls-23" d="M102.89,181.78A32.1,32.1,0,1,1,135,149.68,32.1,32.1,0,0,1,102.89,181.78Z"/><circle class="cls-24" cx="69.39" cy="46.46" r="32.79" transform="translate(-11.42 25.42) rotate(-19.21)"/><path class="cls-24" d="M164.73,64.84a32.78,32.78,0,1,1-8.12-45.65A32.79,32.79,0,0,1,164.73,64.84Z"/><path class="cls-24" d="M149.18,142.36A32.78,32.78,0,1,1,190,120.28,32.79,32.79,0,0,1,149.18,142.36Z"/><path class="cls-24" d="M56.88,142.73a32.79,32.79,0,1,1,21.9-40.88A32.79,32.79,0,0,1,56.88,142.73Z"/><path class="cls-24" d="M102.89,183.66a32.79,32.79,0,1,1,32.79-32.79A32.78,32.78,0,0,1,102.89,183.66Z"/><circle class="cls-25" cx="68.72" cy="45.47" r="33.47" transform="matrix(0.94, -0.35, 0.35, 0.94, -11.65, 27.31)"/><path class="cls-25" d="M166,64.25a33.47,33.47,0,1,1-8.3-46.6A33.48,33.48,0,0,1,166,64.25Z"/><path class="cls-25" d="M150.12,143.36a33.47,33.47,0,1,1,41.62-22.55A33.48,33.48,0,0,1,150.12,143.36Z"/><path class="cls-25" d="M55.94,143.73A33.47,33.47,0,1,1,78.29,102,33.47,33.47,0,0,1,55.94,143.73Z"/><circle class="cls-25" cx="102.89" cy="152.06" r="33.47" transform="translate(-9.4 6.8) rotate(-3.62)"/><circle class="cls-26" cx="68.06" cy="44.48" r="34.15" transform="translate(-11.63 28.35) rotate(-21.72)"/><path class="cls-26" d="M167.22,63.67a34.16,34.16,0,1,1-8.46-47.56A34.14,34.14,0,0,1,167.22,63.67Z"/><path class="cls-26" d="M151.07,144.35a34.16,34.16,0,1,1,42.47-23A34.16,34.16,0,0,1,151.07,144.35Z"/><path class="cls-26" d="M55,144.73a34.16,34.16,0,1,1,22.8-42.58A34.17,34.17,0,0,1,55,144.73Z"/><circle class="cls-26" cx="102.89" cy="153.25" r="34.15" transform="matrix(1, -0.08, 0.08, 1, -12.05, 8.82)"/><circle class="cls-27" cx="67.39" cy="43.49" r="34.84" transform="translate(-11.48 28.94) rotate(-22.38)"/><circle class="cls-27" cx="139.89" cy="43.15" r="34.84" transform="translate(15.08 119.65) rotate(-48.64)"/><circle class="cls-27" cx="161.94" cy="111.95" r="34.84" transform="translate(-4.39 217.27) rotate(-67)"/><path class="cls-27" d="M54.05,145.73a34.84,34.84,0,1,1,23.27-43.44A34.85,34.85,0,0,1,54.05,145.73Z"/><circle class="cls-27" cx="102.89" cy="154.45" r="34.84" transform="translate(-15.34 11.4) rotate(-5.9)"/><circle class="cls-28" cx="66.73" cy="42.5" r="35.52" transform="translate(-11.27 29.26) rotate(-22.86)"/><circle class="cls-28" cx="140.57" cy="42.17" r="35.52" transform="translate(16.31 120.26) rotate(-48.85)"/><circle class="cls-28" cx="163.09" cy="112.29" r="35.52" transform="translate(-3.63 219.11) rotate(-67.2)"/><path class="cls-28" d="M53.11,146.72a35.52,35.52,0,1,1,23.72-44.28A35.52,35.52,0,0,1,53.11,146.72Z"/><circle class="cls-28" cx="102.89" cy="155.64" r="35.52" transform="translate(-19.52 14.84) rotate(-7.53)"/><circle class="cls-29" cx="66.06" cy="41.52" r="36.21" transform="translate(-11.02 29.41) rotate(-23.23)"/><circle class="cls-29" cx="141.26" cy="41.19" r="36.21" transform="translate(17.56 120.88) rotate(-49.05)"/><circle class="cls-29" cx="164.23" cy="112.63" r="36.21" transform="translate(-2.87 220.96) rotate(-67.4)"/><path class="cls-29" d="M52.17,147.72a36.2,36.2,0,1,1,24.18-45.13A36.2,36.2,0,0,1,52.17,147.72Z"/><circle class="cls-29" cx="102.89" cy="156.83" r="36.21" transform="matrix(0.99, -0.17, 0.17, 0.99, -24.92, 19.55)"/><circle class="cls-30" cx="65.39" cy="40.53" r="36.89" transform="translate(-10.74 29.45) rotate(-23.51)"/><circle class="cls-30" cx="141.94" cy="40.22" r="36.89" transform="translate(18.82 121.49) rotate(-49.25)"/><circle class="cls-30" cx="165.37" cy="112.97" r="36.89" transform="translate(-2.09 222.82) rotate(-67.6)"/><path class="cls-30" d="M51.23,148.72a36.89,36.89,0,1,1,24.63-46A36.88,36.88,0,0,1,51.23,148.72Z"/><circle class="cls-30" cx="102.89" cy="158.02" r="36.89" transform="translate(-32.04 26.3) rotate(-12.62)"/><circle class="cls-31" cx="64.73" cy="39.54" r="37.57" transform="translate(-10.44 29.4) rotate(-23.74)"/><circle class="cls-31" cx="142.62" cy="39.24" r="37.57" transform="translate(20.09 122.11) rotate(-49.45)"/><circle class="cls-31" cx="166.51" cy="113.31" r="37.57" transform="translate(-1.3 224.68) rotate(-67.81)"/><path class="cls-31" d="M50.28,149.72a37.57,37.57,0,1,1,25.09-46.84A37.58,37.58,0,0,1,50.28,149.72Z"/><circle class="cls-31" cx="102.89" cy="159.21" r="37.57" transform="matrix(0.96, -0.29, 0.29, 0.96, -41.51, 36.4)"/><circle class="cls-32" cx="64.06" cy="38.55" r="38.26" transform="translate(-10.13 29.29) rotate(-23.93)"/><circle class="cls-32" cx="143.3" cy="38.26" r="38.26" transform="translate(21.37 122.72) rotate(-49.66)"/><circle class="cls-32" cx="167.65" cy="113.65" r="38.26" transform="translate(-0.5 226.55) rotate(-68.01)"/><path class="cls-32" d="M49.34,150.72A38.26,38.26,0,1,1,74.89,103,38.25,38.25,0,0,1,49.34,150.72Z"/><circle class="cls-32" cx="102.89" cy="160.4" r="38.26" transform="matrix(0.92, -0.38, 0.38, 0.92, -53.82, 51.98)"/><text class="cls-33" transform="translate(55.47 34.82)">車<tspan class="cls-34" x="8.78" y="0">載</tspan><tspan class="cls-35"><tspan x="-19.45" y="10">ソ</tspan><tspan class="cls-36" x="-11.58" y="10">リ</tspan><tspan class="cls-37" x="-4.1" y="10">ュ</tspan><tspan class="cls-38" x="3.86" y="10">ー</tspan><tspan class="cls-39" x="12.31" y="10">シ</tspan><tspan x="20.37" y="10">ョ</tspan><tspan class="cls-34" x="28.23" y="10">ン</tspan></tspan></text><text class="cls-40" transform="translate(134.57 35.27)">I<tspan class="cls-41" x="2.34" y="0">ｏ</tspan><tspan class="cls-34" x="9.06" y="0">Ｔ</tspan><tspan class="cls-42"><tspan x="-19.31" y="10">ソ</tspan><tspan class="cls-43" x="-11.45" y="10">リ</tspan><tspan class="cls-44" x="-3.96" y="10">ュ</tspan><tspan class="cls-38" x="4" y="10">ー</tspan><tspan class="cls-45" x="12.45" y="10">シ</tspan><tspan x="20.5" y="10">ョ</tspan><tspan class="cls-46" x="28.37" y="10">ン</tspan></tspan></text><text class="cls-47" transform="translate(16.69 107.37)">ク<tspan class="cls-48" x="8.1" y="0">ラ</tspan><tspan class="cls-49" x="16.4" y="0">ウ</tspan><tspan class="cls-50" x="24.06" y="0">ド</tspan><tspan class="cls-34" x="31.08" y="0">・</tspan><tspan class="cls-51"><tspan x="2.27" y="11.55">安</tspan><tspan class="cls-52" x="11.14" y="11.55">否</tspan><tspan class="cls-53" x="19.9" y="11.55">確</tspan><tspan class="cls-54" x="28.81" y="11.55">認</tspan></tspan><tspan class="cls-55"><tspan x="3.78" y="23.09">シ</tspan><tspan class="cls-56" x="11.61" y="23.09">ス</tspan><tspan class="cls-57" x="19.55" y="23.09">テ</tspan><tspan class="cls-34" x="27.3" y="23.09">ム</tspan></tspan></text><text class="cls-58" transform="translate(84.92 161.89)">大<tspan class="cls-59" x="8.69" y="0">学</tspan><tspan class="cls-60" x="17.57" y="0">教</tspan><tspan class="cls-34" x="26.41" y="0">育</tspan><tspan class="cls-42"><tspan x="-10.63" y="10">ソ</tspan><tspan class="cls-43" x="-2.77" y="10">リ</tspan><tspan class="cls-44" x="4.72" y="10">ュ</tspan><tspan class="cls-38" x="12.67" y="10">ー</tspan><tspan class="cls-45" x="21.12" y="10">シ</tspan><tspan x="29.18" y="10">ョ</tspan><tspan class="cls-46" x="37.04" y="10">ン</tspan></tspan></text><text class="cls-61" transform="translate(156.89 112.43)"><tspan class="cls-62">生</tspan><tspan class="cls-63" x="8.65" y="0">産</tspan><tspan class="cls-64" x="17.11" y="0">管</tspan><tspan x="25.74" y="0">理</tspan><tspan class="cls-65" x="-11.16" y="11.55">ソ</tspan><tspan class="cls-66" x="-3.54" y="11.55">リ</tspan><tspan class="cls-67" x="3.69" y="11.55">ュ</tspan><tspan class="cls-68" x="11.4" y="11.55">ー</tspan><tspan class="cls-69" x="19.59" y="11.55">シ</tspan><tspan class="cls-65" x="27.4" y="11.55">ョ</tspan><tspan x="35.01" y="11.55">ン </tspan></text><path class="cls-70" d="M114.29,62.76A35.21,35.21,0,0,1,133.9,81.82"/><path class="cls-70" d="M123.32,125.27a35.24,35.24,0,0,1-25.94,8.66"/><path class="cls-70" d="M66.07,103.38a35.25,35.25,0,0,1,3.74-27.09"/><path class="cls-71" d="M126.36,77.76a24.36,24.36,0,0,0-8.58,1,24.74,24.74,0,0,0-.57-13.06,24.34,24.34,0,0,0-24.49-17A24.63,24.63,0,0,0,77.25,91.58,24.62,24.62,0,1,0,108.94,121a24.62,24.62,0,1,0,17.42-43.23Z"/><text class="cls-72" transform="translate(72.02 71.29)">ア<tspan class="cls-73" x="5.53" y="0">プ</tspan><tspan class="cls-74" x="10.92" y="0">リ</tspan><tspan class="cls-75" x="16.17" y="0">ケ</tspan><tspan class="cls-76" x="21.55" y="0">ー</tspan><tspan class="cls-77" x="27.01" y="0">シ</tspan><tspan class="cls-78" x="32.2" y="0">ョ</tspan><tspan class="cls-79" x="37.26" y="0">ン</tspan><tspan class="cls-74"><tspan x="13.61" y="7.41">ソ</tspan><tspan class="cls-80" x="18.87" y="7.41">フ</tspan><tspan class="cls-81" x="23.65" y="7.41">ト</tspan></tspan></text><text class="cls-82" transform="translate(119.14 103.29)">ミ<tspan class="cls-83" x="5.01" y="0">ド</tspan><tspan class="cls-84" x="10.32" y="0">ル</tspan><tspan class="cls-85"><tspan x="-0.28" y="7.41">ウ</tspan><tspan class="cls-86" x="5.15" y="7.41">ェ</tspan><tspan class="cls-84" x="10.6" y="7.41">ア</tspan></tspan></text><text class="cls-87" transform="translate(73.16 115.95)">フ<tspan class="cls-88" x="5.29" y="0">ォ</tspan><tspan class="cls-89" x="11.06" y="0">ー</tspan><tspan class="cls-90" x="16.48" y="0">ム</tspan><tspan class="cls-85"><tspan x="2.8" y="7.41">ウ</tspan><tspan class="cls-86" x="8.23" y="7.41">ェ</tspan><tspan class="cls-84" x="13.68" y="7.41">ア</tspan></tspan></text><polygon class="cls-91" points="131.79 78.72 134.35 77.39 133.79 84.33 131.79 78.72"/><polygon class="cls-91" points="102.49 133.5 102.99 136.34 96.55 133.74 102.49 133.5"/><polygon class="cls-91" points="69.17 78.42 66.7 76.91 72.92 73.8 69.17 78.42"/></g></g></svg>